# xmcd CD database file
#
# Track frame offsets:
#	150
#	22203
#	50610
#	74425
#	102190
#	139804
#	170581
#	207556
#
# Disc length: 3171 seconds
#
# Revision: 0
# Processed by: cddbd v1.5.1PL0 Copyright (c) Steve Scherf et al.
# Submitted via: CDex 1.51
#
DISCID=7c0c6108
DTITLE=Jochen Baldes - Niniland
DYEAR=1999
DGENRE=Jazz
TTITLE0=sososo
TTITLE1=lo no
TTITLE2=huga
TTITLE3=nini
TTITLE4=dolores
TTITLE5=ladal
TTITLE6=earthcalling horisberger
TTITLE7=kalam
EXTD=YEAR: 1999
EXTT0=
EXTT1=
EXTT2=
EXTT3=
EXTT4=
EXTT5=
EXTT6=
EXTT7=
PLAYORDER=
